#define IMG_directionTunnel_width 64
#define IMG_directionTunnel_height 64
static char IMG_directionTunnel_bits[] = {
  0x00, 0x00, 0x00, 0x00, 0x00, 0x00, 0x00, 0x00, 0x00, 0x00, 0x00, 0x00, 
  0x00, 0x00, 0x00, 0x00, 0x00, 0x00, 0x00, 0x00, 0x00, 0x00, 0x00, 0x00, 
  0x00, 0x00, 0x00, 0x00, 0x00, 0x00, 0x00, 0x00, 0x00, 0x00, 0x00, 0xE0, 
  0x1F, 0x00, 0x00, 0x00, 0x00, 0x00, 0x00, 0xFE, 0xFF, 0x00, 0x00, 0x00, 
  0x00, 0x00, 0x00, 0xFF, 0xFF, 0x03, 0x00, 0x00, 0x00, 0x00, 0xC0, 0xFF, 
  0xFF, 0x0F, 0x00, 0x00, 0x00, 0x00, 0xF0, 0xFF, 0xFF, 0x1F, 0x00, 0x00, 
  0x00, 0x00, 0xF8, 0x1F, 0xF0, 0x3F, 0x00, 0x00, 0x00, 0x00, 0xFC, 0x03, 
  0x00, 0x7F, 0x00, 0x00, 0x00, 0x00, 0xFE, 0x00, 0x00, 0xFE, 0x00, 0x00, 
  0x00, 0x00, 0x7F, 0x00, 0x00, 0xF8, 0x01, 0x00, 0x00, 0x00, 0x3F, 0x00, 
  0x00, 0xF0, 0x03, 0x00, 0x00, 0x80, 0x1F, 0x00, 0x00, 0xE0, 0x03, 0x00, 
  0x00, 0xC0, 0x0F, 0xE0, 0x1F, 0xE0, 0x07, 0x00, 0x00, 0xC0, 0x07, 0xF8, 
  0x3F, 0xC0, 0x0F, 0x00, 0x00, 0xE0, 0x07, 0xFC, 0x7F, 0x80, 0x0F, 0x00, 
  0x00, 0xE0, 0x03, 0x1E, 0xE0, 0x80, 0x0F, 0x00, 0x00, 0xE0, 0x03, 0x0F, 
  0xC0, 0x01, 0x1F, 0x00, 0x00, 0xF0, 0x81, 0x07, 0x80, 0x03, 0x1F, 0x00, 
  0x00, 0xF0, 0x81, 0x03, 0x00, 0x03, 0x1F, 0x00, 0x00, 0xF0, 0x81, 0x01, 
  0x00, 0x07, 0x1F, 0x00, 0x00, 0xF0, 0xC1, 0x01, 0x00, 0x07, 0x1E, 0x00, 
  0x00, 0xF0, 0xC1, 0x01, 0x00, 0x06, 0x1E, 0x00, 0x00, 0xF0, 0xC1, 0x01, 
  0x00, 0x06, 0x1E, 0x00, 0x00, 0xF0, 0xC1, 0x01, 0x00, 0x06, 0x1E, 0x00, 
  0x00, 0xF0, 0xC0, 0x01, 0x00, 0x06, 0x1E, 0x00, 0x00, 0xF0, 0xC0, 0x01, 
  0x00, 0x06, 0x1E, 0x00, 0x00, 0xF0, 0xC1, 0x01, 0x00, 0x06, 0x1E, 0x00, 
  0x00, 0xF0, 0xC1, 0x01, 0x00, 0x06, 0x1E, 0x00, 0x00, 0xF0, 0xC1, 0x01, 
  0x00, 0x06, 0x1E, 0x00, 0x00, 0xF0, 0xC1, 0x01, 0x00, 0x06, 0x1E, 0x00, 
  0x00, 0xF0, 0xC1, 0x01, 0x00, 0x06, 0x1E, 0x00, 0x00, 0xF0, 0xC1, 0x01, 
  0x00, 0x06, 0x1E, 0x00, 0x00, 0xF0, 0xC1, 0x01, 0x01, 0x06, 0x1E, 0x00, 
  0x00, 0xF0, 0xFF, 0x01, 0x03, 0xFE, 0x1F, 0x00, 0x00, 0xF0, 0xFF, 0x81, 
  0x07, 0xFE, 0x1F, 0x00, 0x00, 0xF0, 0xFF, 0xC1, 0x07, 0xFE, 0x1F, 0x00, 
  0x00, 0xF0, 0x00, 0xE0, 0x0F, 0x00, 0x1E, 0x00, 0x00, 0x70, 0x00, 0xE0, 
  0x1F, 0x00, 0x1C, 0x00, 0x00, 0x30, 0x00, 0xF0, 0x1F, 0x00, 0x10, 0x00, 
  0x00, 0x10, 0x00, 0xF8, 0x3F, 0x00, 0x00, 0x00, 0x00, 0x00, 0x00, 0xF8, 
  0x7F, 0x00, 0x00, 0x00, 0x00, 0x00, 0x00, 0xFC, 0x7F, 0x00, 0x00, 0x00, 
  0x00, 0x00, 0x00, 0xFE, 0xFF, 0x00, 0x00, 0x00, 0x00, 0x00, 0x00, 0xC0, 
  0x0F, 0x00, 0x00, 0x00, 0x00, 0x00, 0x00, 0xC0, 0x0F, 0x00, 0x00, 0x00, 
  0x00, 0x00, 0x00, 0xC0, 0x0F, 0x00, 0x00, 0x00, 0x00, 0x00, 0x00, 0xC0, 
  0x0F, 0x00, 0x00, 0x00, 0x00, 0x00, 0x00, 0xC0, 0x0F, 0x00, 0x00, 0x00, 
  0x00, 0x00, 0x00, 0xC0, 0x0F, 0x00, 0x00, 0x00, 0x00, 0x00, 0x00, 0xC0, 
  0x0F, 0x00, 0x00, 0x00, 0x00, 0x00, 0x00, 0xC0, 0x0F, 0x00, 0x00, 0x00, 
  0x00, 0x00, 0x00, 0xC0, 0x0F, 0x00, 0x00, 0x00, 0x00, 0x00, 0x00, 0xC0, 
  0x0F, 0x00, 0x00, 0x00, 0x00, 0x00, 0x00, 0xC0, 0x0F, 0x00, 0x00, 0x00, 
  0x00, 0x00, 0x00, 0xC0, 0x0F, 0x00, 0x00, 0x00, 0x00, 0x00, 0x00, 0xC0, 
  0x0F, 0x00, 0x00, 0x00, 0x00, 0x00, 0x00, 0xC0, 0x07, 0x00, 0x00, 0x00, 
  0x00, 0x00, 0x00, 0x00, 0x00, 0x00, 0x00, 0x00, 0x00, 0x00, 0x00, 0x00, 
  0x00, 0x00, 0x00, 0x00, 0x00, 0x00, 0x00, 0x00, 0x00, 0x00, 0x00, 0x00, 
  0x00, 0x00, 0x00, 0x00, 0x00, 0x00, 0x00, 0x00, };
