#define IMG_directionError_width 64
#define IMG_directionError_height 64
static char IMG_directionError_bits[] = {
  0x00, 0x00, 0x00, 0x00, 0x00, 0x00, 0x00, 0x00, 0x00, 0x00, 0x00, 0x00, 
  0x00, 0x00, 0x00, 0x00, 0x00, 0x00, 0x00, 0x00, 0x00, 0x00, 0x00, 0x00, 
  0x00, 0x00, 0x00, 0x00, 0x00, 0x00, 0x00, 0x00, 0x00, 0x00, 0x00, 0x00, 
  0x00, 0x00, 0x00, 0x00, 0x00, 0x00, 0x00, 0x00, 0x00, 0x00, 0x00, 0x00, 
  0xF0, 0xFF, 0xC7, 0xFF, 0x07, 0xFC, 0x7F, 0x00, 0xF0, 0xFF, 0xC7, 0xFF, 
  0x1F, 0xFC, 0xFF, 0x00, 0xF0, 0xFF, 0xC7, 0xFF, 0x1F, 0xFC, 0xFF, 0x01, 
  0xF0, 0x00, 0xC0, 0x03, 0x3E, 0x3C, 0xF0, 0x01, 0xF0, 0x00, 0xC0, 0x03, 
  0x3C, 0x3C, 0xE0, 0x01, 0xF0, 0x00, 0xC0, 0x03, 0x3C, 0x3C, 0xE0, 0x01, 
  0xF0, 0x00, 0xC0, 0x03, 0x3C, 0x3C, 0xE0, 0x01, 0xF0, 0xFF, 0xC3, 0x03, 
  0x3F, 0x3C, 0xF0, 0x01, 0xF0, 0xFF, 0xC3, 0xFF, 0x1F, 0xFC, 0xFF, 0x00, 
  0xF0, 0xFF, 0xC3, 0xFF, 0x0F, 0xFC, 0x7F, 0x00, 0xF0, 0xFF, 0xC3, 0xFF, 
  0x01, 0xFC, 0x1F, 0x00, 0xF0, 0x00, 0xC0, 0xE3, 0x03, 0x3C, 0x3E, 0x00, 
  0xF0, 0x00, 0xC0, 0xC3, 0x07, 0x3C, 0x7C, 0x00, 0xF0, 0x00, 0xC0, 0x83, 
  0x0F, 0x3C, 0xF8, 0x00, 0xF0, 0x00, 0xC0, 0x03, 0x1F, 0x3C, 0xF8, 0x00, 
  0xF0, 0x00, 0xC0, 0x03, 0x1E, 0x3C, 0xF0, 0x01, 0xF0, 0xFF, 0xC7, 0x03, 
  0x3E, 0x3C, 0xE0, 0x01, 0xF0, 0xFF, 0xC7, 0x03, 0x7C, 0x3C, 0xE0, 0x03, 
  0xF0, 0xFF, 0xC7, 0x03, 0x78, 0x3C, 0xC0, 0x07, 0x00, 0x00, 0x00, 0x00, 
  0x00, 0x00, 0x00, 0x00, 0x00, 0x00, 0x00, 0x00, 0x00, 0x00, 0x00, 0x00, 
  0x00, 0x00, 0x00, 0x00, 0x00, 0x00, 0x00, 0x00, 0x00, 0x00, 0x00, 0x00, 
  0x00, 0x00, 0x00, 0x00, 0x00, 0x00, 0x00, 0x00, 0x00, 0x00, 0x00, 0x00, 
  0x00, 0x00, 0x00, 0x00, 0x00, 0x00, 0x00, 0x00, 0x00, 0x00, 0x00, 0x00, 
  0x00, 0x00, 0x00, 0x00, 0x00, 0x00, 0x00, 0x00, 0x00, 0x00, 0x00, 0x00, 
  0x00, 0x00, 0x00, 0x00, 0x00, 0x00, 0x00, 0x00, 0x00, 0x00, 0x00, 0x00, 
  0x00, 0x00, 0x00, 0x00, 0x00, 0x00, 0x00, 0x00, 0x00, 0x00, 0x00, 0x00, 
  0x00, 0x00, 0x00, 0x00, 0x00, 0x00, 0x00, 0x00, 0x00, 0x00, 0x00, 0x00, 
  0x00, 0x00, 0x00, 0x00, 0x00, 0x00, 0x00, 0x00, 0x00, 0x00, 0x00, 0x00, 
  0x00, 0x00, 0x00, 0x00, 0x00, 0x00, 0x00, 0x00, 0x00, 0x00, 0x00, 0x00, 
  0x00, 0x00, 0x00, 0x00, 0x00, 0x00, 0x00, 0x00, 0x00, 0x00, 0x00, 0x00, 
  0x00, 0x00, 0x00, 0x00, 0x00, 0x00, 0x00, 0x00, 0x00, 0x00, 0x00, 0x00, 
  0x00, 0x00, 0x00, 0x00, 0x00, 0x00, 0x00, 0x00, 0x00, 0x00, 0x00, 0x00, 
  0x00, 0x00, 0x00, 0x00, 0x00, 0x00, 0x00, 0x00, 0x00, 0x00, 0x00, 0x00, 
  0x00, 0x00, 0x00, 0x00, 0x00, 0x00, 0x00, 0x00, 0x00, 0x00, 0x00, 0x00, 
  0x00, 0x00, 0x00, 0x00, 0x00, 0x00, 0x00, 0x00, 0x00, 0x00, 0x00, 0x00, 
  0x00, 0x00, 0x00, 0x00, 0x00, 0x00, 0x00, 0x00, 0x00, 0x00, 0x00, 0x00, 
  0x00, 0x00, 0x00, 0x00, 0x00, 0x00, 0x00, 0x00, 0x00, 0x00, 0x00, 0x00, 
  0x00, 0x00, 0x00, 0x00, 0x00, 0x00, 0x00, 0x00, 0x00, 0x00, 0x00, 0x00, 
  0x00, 0x00, 0x00, 0x00, 0x00, 0x00, 0x00, 0x00, 0x00, 0x00, 0x00, 0x00, 
  0x00, 0x00, 0x00, 0x00, 0x00, 0x00, 0x00, 0x00, 0x00, 0x00, 0x00, 0x00, 
  0x00, 0x00, 0x00, 0x00, 0x00, 0x00, 0x00, 0x00, 0x00, 0x00, 0x00, 0x00, 
  0x00, 0x00, 0x00, 0x00, 0x00, 0x00, 0x00, 0x00, 0x00, 0x00, 0x00, 0x00, 
  0x00, 0x00, 0x00, 0x00, 0x00, 0x00, 0x00, 0x00, 0x00, 0x00, 0x00, 0x00, 
  0x00, 0x00, 0x00, 0x00, 0x00, 0x00, 0x00, 0x00, 0x00, 0x00, 0x00, 0x00, 
  0x00, 0x00, 0x00, 0x00, 0x00, 0x00, 0x00, 0x00, };
