#define IMG_directionOutOfRoute_width 64
#define IMG_directionOutOfRoute_height 64
static char IMG_directionOutOfRoute_bits[] = {
  0x00, 0x00, 0x00, 0x00, 0x00, 0x00, 0x00, 0x00, 0x00, 0x00, 0x00, 0x00, 
  0x00, 0x00, 0x00, 0x00, 0x00, 0x00, 0x00, 0x00, 0x00, 0x00, 0x00, 0x00, 
  0x00, 0x00, 0x00, 0x00, 0x00, 0x00, 0x00, 0x00, 0x00, 0x00, 0x00, 0x00, 
  0x00, 0x00, 0x00, 0x00, 0x00, 0x00, 0x00, 0x00, 0x00, 0x00, 0x00, 0x00, 
  0x00, 0x00, 0x00, 0x00, 0x00, 0x00, 0x00, 0x00, 0x00, 0x00, 0x00, 0x00, 
  0x00, 0x00, 0x00, 0x00, 0x00, 0x00, 0x00, 0x00, 0x00, 0x00, 0x00, 0x00, 
  0x00, 0x00, 0x00, 0x00, 0x00, 0x00, 0x00, 0x00, 0x00, 0x38, 0x08, 0xF3, 
  0x07, 0x1C, 0xFC, 0x00, 0x00, 0x7C, 0x0C, 0xFB, 0x07, 0x3E, 0xFC, 0x00, 
  0x00, 0xFE, 0x0C, 0xFB, 0x07, 0x7F, 0xFC, 0x00, 0x00, 0xC6, 0x0C, 0xC3, 
  0x00, 0xE3, 0x04, 0x00, 0x00, 0x83, 0x0D, 0xC3, 0x80, 0xC1, 0x04, 0x00, 
  0x00, 0x83, 0x0D, 0xC3, 0x80, 0xC1, 0x04, 0x00, 0x00, 0x83, 0x0D, 0xC3, 
  0x80, 0xC1, 0x6C, 0x00, 0x00, 0x83, 0x0D, 0xC3, 0x80, 0xC1, 0x7C, 0x00, 
  0x00, 0x83, 0x0D, 0xC3, 0x80, 0xC1, 0x7C, 0x00, 0x00, 0x83, 0x0D, 0xC3, 
  0x80, 0xC1, 0x0C, 0x00, 0x00, 0x83, 0x0D, 0xC3, 0x80, 0xC1, 0x04, 0x00, 
  0x00, 0x83, 0x09, 0xC3, 0x80, 0xC1, 0x04, 0x00, 0x00, 0xC7, 0x18, 0xC3, 
  0x00, 0xE3, 0x04, 0x00, 0x00, 0xFE, 0xF8, 0xC1, 0x00, 0x7F, 0x04, 0x00, 
  0x00, 0x7C, 0xF8, 0xC1, 0x00, 0x7E, 0x04, 0x00, 0x00, 0x38, 0xF0, 0x80, 
  0x00, 0x1C, 0x04, 0x00, 0x00, 0x00, 0x00, 0x00, 0x00, 0x00, 0x00, 0x00, 
  0x00, 0x00, 0x00, 0x00, 0x00, 0x00, 0x00, 0x00, 0x00, 0x00, 0x00, 0x00, 
  0x00, 0x00, 0x00, 0x00, 0x00, 0x00, 0x00, 0x00, 0x00, 0x00, 0x00, 0x00, 
  0x00, 0x00, 0x00, 0x00, 0x00, 0x00, 0x00, 0x00, 0x00, 0x00, 0x00, 0x00, 
  0x00, 0x00, 0x00, 0x00, 0x00, 0x00, 0x00, 0x00, 0x00, 0x00, 0x00, 0x00, 
  0x00, 0x00, 0x00, 0x00, 0x00, 0x00, 0x00, 0x00, 0x00, 0x00, 0x00, 0x00, 
  0x00, 0x00, 0x00, 0x00, 0x00, 0x00, 0x00, 0x00, 0x00, 0x00, 0x00, 0x00, 
  0x00, 0x3F, 0xF8, 0x18, 0xF6, 0xEF, 0x0F, 0x00, 0x00, 0x7F, 0xFC, 0x19, 
  0xF6, 0xEF, 0x0F, 0x00, 0x00, 0x7F, 0xDC, 0x19, 0xE6, 0xEF, 0x0F, 0x00, 
  0x00, 0x63, 0x8E, 0x19, 0x86, 0x61, 0x00, 0x00, 0x00, 0x43, 0x06, 0x1B, 
  0x86, 0x61, 0x00, 0x00, 0x00, 0x63, 0x06, 0x1B, 0x86, 0x61, 0x00, 0x00, 
  0x00, 0x7F, 0x06, 0x1B, 0x86, 0xE1, 0x07, 0x00, 0x00, 0x3F, 0x06, 0x1B, 
  0x86, 0xE1, 0x07, 0x00, 0x00, 0x1F, 0x06, 0x1B, 0x86, 0xE1, 0x07, 0x00, 
  0x00, 0x3B, 0x06, 0x1B, 0x86, 0x61, 0x00, 0x00, 0x00, 0x33, 0x06, 0x1B, 
  0x86, 0x61, 0x00, 0x00, 0x00, 0x73, 0x86, 0x13, 0x86, 0x61, 0x00, 0x00, 
  0x00, 0x63, 0x8C, 0x31, 0x87, 0x61, 0x00, 0x00, 0x00, 0xE3, 0xFC, 0xF1, 
  0x83, 0xE1, 0x0F, 0x00, 0x00, 0xC3, 0xF8, 0xE0, 0x83, 0xE1, 0x0F, 0x00, 
  0x00, 0x00, 0x70, 0xC0, 0x01, 0x00, 0x00, 0x00, 0x00, 0x00, 0x00, 0x00, 
  0x00, 0x00, 0x00, 0x00, 0x00, 0x00, 0x00, 0x00, 0x00, 0x00, 0x00, 0x00, 
  0x00, 0x00, 0x00, 0x00, 0x00, 0x00, 0x00, 0x00, 0x00, 0x00, 0x00, 0x00, 
  0x00, 0x00, 0x00, 0x00, 0x00, 0x00, 0x00, 0x00, 0x00, 0x00, 0x00, 0x00, 
  0x00, 0x00, 0x00, 0x00, 0x00, 0x00, 0x00, 0x00, 0x00, 0x00, 0x00, 0x00, 
  0x00, 0x00, 0x00, 0x00, 0x00, 0x00, 0x00, 0x00, 0x00, 0x00, 0x00, 0x00, 
  0x00, 0x00, 0x00, 0x00, 0x00, 0x00, 0x00, 0x00, 0x00, 0x00, 0x00, 0x00, 
  0x00, 0x00, 0x00, 0x00, 0x00, 0x00, 0x00, 0x00, 0x00, 0x00, 0x00, 0x00, 
  0x00, 0x00, 0x00, 0x00, 0x00, 0x00, 0x00, 0x00, };
